<svg viewBox="0 0 40 40" xmlns="http://www.w3.org/2000/svg">
<g clip-path="url(#clip0_26_593)">
<path d="M30 0L40 10V0H30ZM40 30L30 40H40V30ZM10 40L0 30V40H10ZM0 10L10 0H0V10ZM32.375 7.625C25.55 0.8 14.45 0.8 7.625 7.625C0.8 14.45 0.8 25.55 7.625 32.375C14.45 39.2 25.55 39.2 32.375 32.375C39.2 25.55 39.2 14.475 32.375 7.625ZM29.625 29.625C24.3 34.95 15.7 34.95 10.375 29.625C5.05 24.3 5.05 15.7 10.375 10.375C15.7 5.05 24.3 5.05 29.625 10.375C34.95 15.7 34.95 24.3 29.625 29.625Z"/>
</g>
<defs>
<clipPath id="clip0_26_593">
<rect width="40" height="40"/>
</clipPath>
</defs>
</svg>
