<svg viewBox="0 0 24 24" xmlns="http://www.w3.org/2000/svg">
<path fill-rule="evenodd" clip-rule="evenodd" d="M9.429 8.969H13.143V10.819C13.678 9.755 15.05 8.799 17.111 8.799C21.062 8.799 22 10.917 22 14.803V22H18V15.688C18 13.475 17.465 12.227 16.103 12.227C14.214 12.227 13.429 13.572 13.429 15.687V22H9.429V8.969ZM2.57 21.83H6.57V8.799H2.57V21.83ZM7.143 4.55C7.14315 4.88528 7.07666 5.21724 6.94739 5.52659C6.81812 5.83594 6.62865 6.11651 6.39 6.352C6.15064 6.59012 5.86671 6.77874 5.55442 6.90708C5.24214 7.03543 4.90763 7.10098 4.57 7.1C3.8896 7.09847 3.23691 6.83029 2.752 6.353C2.5143 6.11665 2.32553 5.83575 2.1965 5.52637C2.06746 5.21699 2.00069 4.88521 2 4.55C2 3.873 2.27 3.225 2.753 2.747C3.2367 2.26788 3.89018 1.99938 4.571 2C5.253 2 5.907 2.269 6.39 2.747C6.873 3.225 7.143 3.873 7.143 4.55Z"/>
</svg>
