<svg viewBox="0 0 40 40" xmlns="http://www.w3.org/2000/svg">
<g clip-path="url(#clip0_39_970)">
<path d="M6.7002 35.4L11.2849 30.8153M11.2849 30.8153C12.069 31.5994 12.9998 32.2214 14.0243 32.6457C15.0488 33.0701 16.1468 33.2885 17.2556 33.2885C18.3645 33.2885 19.4625 33.0701 20.487 32.6457C21.5114 32.2214 22.4423 31.5994 23.2264 30.8153C24.0105 30.0312 24.6325 29.1004 25.0568 28.0759C25.4811 27.0514 25.6996 25.9534 25.6996 24.8445C25.6996 23.7357 25.4811 22.6377 25.0568 21.6132C24.6325 20.5887 24.0105 19.6579 23.2264 18.8738C21.6428 17.2903 19.4951 16.4006 17.2556 16.4006C15.0162 16.4006 12.8684 17.2903 11.2849 18.8738C9.70135 20.4573 8.81173 22.6051 8.81173 24.8445C8.81173 27.084 9.70135 29.2318 11.2849 30.8153Z" stroke="currentColor" stroke-width="3" stroke-linecap="round" stroke-linejoin="round"/>
<path d="M2.90002 26.2572C1.65188 24.1069 0.99627 21.6641 1.00002 19.1778C1.00002 11.3479 7.38021 5 15.25 5H24.75C32.6198 5 39 11.3479 39 19.1778C39 25.3528 35.0347 30.6044 29.5 32.55" stroke="currentColor" stroke-width="3" stroke-linecap="round" stroke-linejoin="round"/>
</g>
<defs>
<clipPath id="clip0_39_970">
<rect width="40" height="40" fill="currentColor"/>
</clipPath>
</defs>
</svg>
