<svg viewBox="0 0 40 40" xmlns="http://www.w3.org/2000/svg">
<g clip-path="url(#clip0_39_969)">
<path d="M3.4 18.2571L36.2571 3.31429M36.2571 3.31429L30.1143 1M36.2571 3.31429L33.9714 9.45714M37.7143 38.1429H30.5714V18.1429C30.5714 17.764 30.7219 17.4006 30.9898 17.1327C31.2578 16.8648 31.6211 16.7143 32 16.7143H36.2857C36.6646 16.7143 37.028 16.8648 37.2959 17.1327C37.5638 17.4006 37.7143 17.764 37.7143 18.1429V38.1429ZM23.4286 38.1429H16.2857V22.4286C16.2857 22.0497 16.4362 21.6863 16.7041 21.4184C16.972 21.1505 17.3354 21 17.7143 21H22C22.3789 21 22.7422 21.1505 23.0102 21.4184C23.2781 21.6863 23.4286 22.0497 23.4286 22.4286V38.1429ZM9.14286 38.1429H2V26.7143C2 26.3354 2.15051 25.972 2.41842 25.7041C2.68633 25.4362 3.04969 25.2857 3.42857 25.2857H7.71429C8.09317 25.2857 8.45653 25.4362 8.72444 25.7041C8.99235 25.972 9.14286 26.3354 9.14286 26.7143V38.1429Z" stroke="currentcolor" stroke-width="3" stroke-linecap="round" stroke-linejoin="round"/>
</g>
<defs>
<clipPath id="clip0_39_969">
<rect width="40" height="40"/>
</clipPath>
</defs>
</svg>
