<svg viewBox="0 0 24 24" xmlns="http://www.w3.org/2000/svg">
<path fill-rule="evenodd" clip-rule="evenodd" d="M16.4444 2C17.9179 2 19.3309 2.58532 20.3728 3.62718C21.4147 4.66905 22 6.08213 22 7.55556V16.4444C22 17.9179 21.4147 19.3309 20.3728 20.3728C19.3309 21.4147 17.9179 22 16.4444 22H7.55556C6.08213 22 4.66905 21.4147 3.62718 20.3728C2.58532 19.3309 2 17.9179 2 16.4444V7.55556C2 6.08213 2.58532 4.66905 3.62718 3.62718C4.66905 2.58532 6.08213 2 7.55556 2H16.4444ZM16.4444 4.22222H7.55556C6.6715 4.22222 5.82365 4.57341 5.19853 5.19853C4.57341 5.82365 4.22222 6.6715 4.22222 7.55556V16.4444C4.22222 17.3285 4.57341 18.1763 5.19853 18.8015C5.82365 19.4266 6.6715 19.7778 7.55556 19.7778H16.4444C17.3285 19.7778 18.1763 19.4266 18.8015 18.8015C19.4266 18.1763 19.7778 17.3285 19.7778 16.4444V7.55556C19.7778 6.6715 19.4266 5.82365 18.8015 5.19853C18.1763 4.57341 17.3285 4.22222 16.4444 4.22222ZM12 7.55556C13.1787 7.55556 14.3092 8.02381 15.1427 8.8573C15.9762 9.6908 16.4444 10.8213 16.4444 12C16.4444 13.1787 15.9762 14.3092 15.1427 15.1427C14.3092 15.9762 13.1787 16.4444 12 16.4444C10.8213 16.4444 9.6908 15.9762 8.8573 15.1427C8.02381 14.3092 7.55556 13.1787 7.55556 12C7.55556 10.8213 8.02381 9.6908 8.8573 8.8573C9.6908 8.02381 10.8213 7.55556 12 7.55556ZM12 9.77778C11.4106 9.77778 10.8454 10.0119 10.4287 10.4287C10.0119 10.8454 9.77778 11.4106 9.77778 12C9.77778 12.5894 10.0119 13.1546 10.4287 13.5713C10.8454 13.9881 11.4106 14.2222 12 14.2222C12.5894 14.2222 13.1546 13.9881 13.5713 13.5713C13.9881 13.1546 14.2222 12.5894 14.2222 12C14.2222 11.4106 13.9881 10.8454 13.5713 10.4287C13.1546 10.0119 12.5894 9.77778 12 9.77778ZM17 5.88889C17.2947 5.88889 17.5773 6.00595 17.7857 6.21433C17.9941 6.4227 18.1111 6.70532 18.1111 7C18.1111 7.29469 17.9941 7.5773 17.7857 7.78567C17.5773 7.99405 17.2947 8.11111 17 8.11111C16.7053 8.11111 16.4227 7.99405 16.2143 7.78567C16.006 7.5773 15.8889 7.29469 15.8889 7C15.8889 6.70532 16.006 6.4227 16.2143 6.21433C16.4227 6.00595 16.7053 5.88889 17 5.88889Z"/>
</svg>
