<svg width="40" height="40" viewBox="0 0 40 40" fill="none" xmlns="http://www.w3.org/2000/svg">
<path d="M3 8.56C3 8.14626 3.16436 7.74947 3.45691 7.45691C3.74947 7.16436 4.14626 7 4.56 7H35.76C36.1737 7 36.5705 7.16436 36.8631 7.45691C37.1556 7.74947 37.32 8.14626 37.32 8.56C37.32 8.97374 37.1556 9.37053 36.8631 9.66309C36.5705 9.95564 36.1737 10.12 35.76 10.12H4.56C4.14626 10.12 3.74947 9.95564 3.45691 9.66309C3.16436 9.37053 3 8.97374 3 8.56ZM3 20C3 19.5863 3.16436 19.1895 3.45691 18.8969C3.74947 18.6044 4.14626 18.44 4.56 18.44H35.76C36.1737 18.44 36.5705 18.6044 36.8631 18.8969C37.1556 19.1895 37.32 19.5863 37.32 20C37.32 20.4137 37.1556 20.8105 36.8631 21.1031C36.5705 21.3956 36.1737 21.56 35.76 21.56H4.56C4.14626 21.56 3.74947 21.3956 3.45691 21.1031C3.16436 20.8105 3 20.4137 3 20ZM3 31.44C3 31.0263 3.16436 30.6295 3.45691 30.3369C3.74947 30.0444 4.14626 29.88 4.56 29.88H35.76C36.1737 29.88 36.5705 30.0444 36.8631 30.3369C37.1556 30.6295 37.32 31.0263 37.32 31.44C37.32 31.8537 37.1556 32.2505 36.8631 32.5431C36.5705 32.8356 36.1737 33 35.76 33H4.56C4.14626 33 3.74947 32.8356 3.45691 32.5431C3.16436 32.2505 3 31.8537 3 31.44Z" fill="white"/>
</svg>
