<svg viewBox="0 0 32 32" xmlns="http://www.w3.org/2000/svg">
<path d="M21.3335 4H1.3335V21.3333H21.3335V4Z" stroke="currentColor" stroke-width="2" stroke-linecap="round" stroke-linejoin="round"/>
<path d="M21.3335 10.6667H26.6668L30.6668 14.6667V21.3334H21.3335V10.6667Z" stroke="currentColor" stroke-width="2" stroke-linecap="round" stroke-linejoin="round"/>
<path d="M7.33333 27.9999C9.17428 27.9999 10.6667 26.5075 10.6667 24.6666C10.6667 22.8256 9.17428 21.3333 7.33333 21.3333C5.49238 21.3333 4 22.8256 4 24.6666C4 26.5075 5.49238 27.9999 7.33333 27.9999Z" stroke="currentColor" stroke-width="2" stroke-linecap="round" stroke-linejoin="round"/>
<path d="M24.6668 27.9999C26.5078 27.9999 28.0002 26.5075 28.0002 24.6666C28.0002 22.8256 26.5078 21.3333 24.6668 21.3333C22.8259 21.3333 21.3335 22.8256 21.3335 24.6666C21.3335 26.5075 22.8259 27.9999 24.6668 27.9999Z" stroke="currentColor" stroke-width="2" stroke-linecap="round" stroke-linejoin="round"/>
</svg>
